 <svg  version="1.0" xmlns="http://www.w3.org/2000/svg"  width="300.000000pt" height="200.000000pt" viewBox="0 0 300.000000 200.000000"  preserveAspectRatio="xMidYMid meet">  <g transform="translate(0.000000,200.000000) scale(0.100000,-0.100000)" fill="#ffffff" stroke="none"> <path d="M0 1827 c0 -3 5 -18 12 -32 10 -22 9 -28 -3 -36 -11 -7 -11 -9 0 -9 11 0 11 -3 1 -15 -7 -9 -10 -19 -6 -23 12 -11 36 29 36 58 0 15 -9 35 -20 45 -11 10 -20 15 -20 12z"/> <path d="M171 1801 c-45 -8 -62 -34 -38 -58 15 -16 42 -18 197 -21 235 -5 220 11 220 -231 0 -97 5 -194 11 -216 16 -58 73 -110 134 -123 28 -5 64 -8 81 -5 18 3 42 0 54 -7 17 -9 26 -8 43 2 16 10 39 12 82 7 40 -5 73 -3 98 6 l37 13 0 -107 0 -106 -172 3 c-145 2 -175 6 -191 20 -17 15 -20 15 -49 -1 -26 -15 -65 -17 -354 -17 -227 0 -323 -3 -319 -11 5 -7 109 -10 321 -8 173 1 318 -1 321 -5 3 -3 -141 -6 -320 -6 -219 0 -327 -3 -327 -10 0 -7 109 -10 331 -10 225 1 335 -2 342 -9 14 -14 33 -14 58 0 12 6 92 11 189 12 l168 2 4 -110 c4 -118 16 -153 67 -208 57 -62 84 -67 357 -67 289 0 309 5 371 91 19 27 38 49 41 49 4 0 16 -8 27 -16 16 -12 50 -15 160 -15 77 0 156 0 175 0 19 0 43 -8 54 -17 39 -35 46 -73 46 -263 0 -165 2 -185 21 -219 38 -68 60 -75 267 -78 163 -3 186 -2 203 14 22 19 22 23 9 44 -7 12 -45 16 -196 20 -240 6 -224 -10 -224 224 0 94 -5 191 -11 216 -14 63 -49 104 -101 120 -23 7 -47 17 -52 22 -11 9 -50 11 -58 2 -3 -3 -76 -6 -163 -7 l-157 -2 6 29 c3 16 6 61 6 100 l0 71 167 -3 c105 -1 177 -7 191 -14 18 -9 28 -9 43 1 15 9 100 12 340 11 211 0 319 3 319 10 0 7 -107 10 -317 10 -174 0 -314 3 -310 6 3 3 146 5 316 5 212 -2 311 1 311 8 0 8 -103 11 -319 11 -271 0 -320 2 -331 15 -7 8 -20 15 -30 15 -10 0 -23 -7 -30 -15 -10 -12 -43 -15 -181 -15 l-169 0 0 99 0 99 34 -8 c19 -4 88 -6 153 -5 66 2 126 -1 133 -5 9 -5 24 -3 40 5 14 8 37 16 51 19 35 7 76 41 96 79 14 26 18 70 23 239 5 192 6 208 25 222 16 12 54 16 180 17 173 1 202 5 219 32 8 13 7 21 -7 34 -16 16 -39 18 -200 18 -164 0 -185 -2 -216 -20 -72 -43 -75 -53 -81 -283 -3 -134 -9 -214 -17 -228 -19 -34 -56 -54 -77 -42 -12 7 -25 7 -40 -1 -11 -6 -84 -12 -161 -13 -77 -2 -147 -7 -156 -11 -11 -6 -19 -1 -27 17 -23 50 -83 105 -138 126 -48 18 -78 20 -256 20 -125 0 -216 -4 -242 -12 -64 -18 -123 -64 -154 -118 -27 -47 -29 -49 -50 -34 -16 11 -44 15 -105 13 -46 -1 -93 3 -104 9 -15 8 -25 8 -38 -2 -15 -10 -29 -11 -74 -1 -116 26 -114 21 -121 275 -3 127 -9 213 -17 225 -27 47 -60 67 -130 76 -76 9 -260 10 -312 0z m372 -44 c53 -35 60 -64 65 -282 2 -110 8 -208 14 -218 15 -29 56 -49 115 -56 35 -4 58 -11 61 -20 4 -12 -6 -13 -54 -7 -66 8 -107 28 -138 69 -19 26 -21 45 -26 244 l-5 215 -28 24 c-28 24 -32 24 -217 24 -174 0 -212 5 -192 24 4 4 90 6 192 4 157 -2 190 -6 213 -21z m2337 8 c0 -13 -28 -15 -191 -15 l-191 0 -29 -29 -29 -29 0 -199 c0 -169 -3 -203 -18 -233 -20 -40 -84 -89 -91 -69 -2 7 1 15 8 17 7 2 24 14 39 27 l27 23 5 214 5 215 28 36 c16 21 42 41 60 46 18 5 110 10 205 10 147 1 172 -1 172 -14z m-1090 -450 c53 -27 90 -70 109 -124 7 -21 11 -116 11 -255 0 -249 -6 -274 -73 -333 -63 -55 -120 -65 -350 -61 -189 3 -205 5 -250 27 -61 30 -102 86 -117 158 -8 34 -10 128 -8 251 4 216 10 243 75 304 56 53 79 57 326 58 223 0 229 -1 277 -25z m-922 -128 c4 -21 -27 -35 -38 -17 -12 19 0 42 19 38 9 -2 17 -11 19 -21z m1430 0 c4 -20 -25 -34 -40 -19 -15 15 -1 44 19 40 10 -2 19 -11 21 -21z m-1235 -2 c-2 -5 -39 -11 -83 -13 -67 -2 -80 0 -80 13 0 13 13 15 83 13 48 -2 81 -7 80 -13z m1157 0 c0 -13 -22 -15 -135 -15 -123 0 -147 4 -128 23 3 4 64 7 135 7 107 0 128 -2 128 -15z m-1494 -236 c3 -6 0 -18 -9 -26 -18 -18 -37 -9 -37 18 0 21 34 27 46 8z m1620 0 c8 -14 -21 -43 -35 -35 -19 12 -13 46 8 46 11 0 23 -5 27 -11z m-1269 -13 c3 -3 -69 -6 -161 -6 -92 0 -165 3 -163 8 6 9 315 7 324 -2z m1190 0 c4 -3 -69 -6 -161 -6 -92 0 -165 3 -163 8 6 8 316 7 324 -2z m29 -265 c-4 -6 -16 -11 -27 -11 -21 0 -27 35 -6 43 16 6 41 -18 33 -32z m-76 9 c0 -6 -52 -10 -135 -10 -83 0 -135 4 -135 10 0 6 52 10 135 10 83 0 135 -4 135 -10z m173 -34 c19 -18 37 -48 41 -66 3 -18 6 -115 6 -216 l0 -184 29 -32 29 -33 191 -3 c110 -2 191 -7 191 -13 0 -5 -75 -9 -180 -9 -286 0 -283 -3 -288 300 -3 183 -6 207 -23 231 -11 15 -28 31 -39 34 -23 7 -27 25 -5 25 8 0 30 -15 48 -34z"/> <path d="M1245 1290 c-48 -24 -92 -86 -100 -144 -4 -23 -5 -132 -3 -243 l3 -201 30 -43 c55 -77 78 -84 329 -87 217 -3 219 -3 270 22 31 15 61 40 76 62 25 37 25 41 28 275 3 219 1 241 -16 276 -23 43 -43 64 -89 87 -27 13 -70 16 -260 16 -207 0 -232 -2 -268 -20z m506 -8 c36 -13 78 -50 97 -87 6 -11 12 -115 13 -235 4 -233 0 -259 -50 -313 -31 -35 -82 -57 -110 -50 -12 3 -21 1 -21 -6 0 -5 -6 -8 -13 -5 -7 2 -96 6 -197 7 -165 2 -189 4 -219 22 -80 47 -89 87 -87 370 1 181 2 192 24 228 38 59 69 71 212 77 191 8 311 5 351 -8z"/> <path d="M1453 1176 c-33 -27 -46 -55 -98 -201 -19 -55 -40 -113 -46 -130 -24 -62 -22 -98 6 -127 36 -38 73 -37 111 5 17 17 36 44 42 59 l12 28 43 -21 c23 -11 50 -34 60 -51 10 -18 23 -28 31 -25 8 3 16 -2 19 -14 7 -26 53 -26 62 1 3 11 13 20 21 20 8 0 12 5 9 10 -4 6 0 24 9 41 13 27 13 31 0 36 -8 3 -13 12 -10 19 3 8 1 14 -4 14 -5 0 -9 8 -8 18 0 21 -96 267 -114 290 -45 58 -98 68 -145 28z m101 -32 c17 -17 21 -34 8 -34 -26 0 -48 -41 -90 -170 -27 -79 -54 -146 -62 -148 -9 -3 -11 1 -6 13 5 15 4 16 -9 5 -15 -13 -15 -14 -29 34 -5 16 89 282 106 303 15 18 63 16 82 -3z m39 -80 c5 -16 32 -89 59 -162 55 -149 56 -175 5 -170 -28 3 -33 8 -45 51 l-13 47 -51 0 c-44 0 -49 2 -43 18 4 9 9 25 12 34 4 13 12 16 34 11 32 -6 34 -2 17 30 -6 12 -19 47 -29 79 -16 55 -16 57 3 78 25 26 39 22 51 -16z m-228 -289 c-6 -28 -5 -29 9 -12 21 27 46 19 35 -11 -7 -19 -15 -23 -41 -20 -27 2 -34 8 -36 30 -4 36 16 76 29 57 5 -8 7 -27 4 -44z"/> <path d="M707 715 c-11 -7 -24 -12 -31 -9 -19 7 -78 -37 -100 -76 -19 -31 -22 -57 -26 -242 -4 -181 -7 -210 -23 -225 -15 -16 -41 -18 -200 -21 -108 -2 -187 -8 -194 -14 -17 -14 -16 -33 3 -52 13 -13 44 -16 182 -16 186 0 226 7 264 47 44 46 49 76 48 260 0 180 7 221 45 253 21 17 41 19 231 19 125 0 143 2 164 19 25 20 25 20 5 42 -18 20 -27 21 -157 19 -76 -1 -141 1 -145 4 -11 12 -47 7 -66 -8z m52 -14 c17 -11 7 -41 -13 -41 -19 0 -29 17 -22 35 6 17 15 18 35 6z m-80 -40 c-8 -2 -26 -16 -40 -30 l-26 -27 -5 -210 c-7 -307 -2 -303 -290 -303 -100 -1 -179 3 -183 8 -3 6 72 11 191 13 l196 3 29 33 29 32 0 198 c0 168 3 202 18 232 20 40 84 89 91 69 2 -7 -2 -15 -10 -18z m391 19 c0 -6 -52 -10 -135 -10 -83 0 -135 4 -135 10 0 6 52 10 135 10 83 0 135 -4 135 -10z"/> </g> </svg> 